<?xml version="1.0" standalone="no"?><!DOCTYPE svg PUBLIC "-//W3C//DTD SVG 1.1//EN" "http://www.w3.org/Graphics/SVG/1.1/DTD/svg11.dtd"><svg class="icon" width="16px" height="16.00px" viewBox="0 0 1024 1024" version="1.1" xmlns="http://www.w3.org/2000/svg"><path fill="#333333" d="M511.5648 358.4a12.7616 12.7616 0 0 0-9.6 3.8784L355.584 512.9088a12.8 12.8 0 1 0 18.368 17.8432L499.2 401.856V729.6a12.8 12.8 0 0 0 25.6 0V400.512l120.768 126.8736a12.8 12.8 0 1 0 18.5472-17.6512l-140.288-147.3536a12.7744 12.7744 0 0 0-10.5472-3.9168 12.9536 12.9536 0 0 0-1.7152-0.0512zM512 1024C229.2352 1024 0 794.7648 0 512S229.2352 0 512 0s512 229.2352 512 512-229.2352 512-512 512zM320 320h384a12.8 12.8 0 0 0 0-25.6H320a12.8 12.8 0 0 0 0 25.6z" /></svg>