<?xml version="1.0" standalone="no"?><!DOCTYPE svg PUBLIC "-//W3C//DTD SVG 1.1//EN" "http://www.w3.org/Graphics/SVG/1.1/DTD/svg11.dtd"><svg class="icon" width="16px" height="16.00px" viewBox="0 0 1024 1024" version="1.1" xmlns="http://www.w3.org/2000/svg"><path fill="#333333" d="M474.851556 522.808889L209.578667 306.460444a28.444444 28.444444 0 1 1 35.953777-44.032l291.271112 237.454223a28.444444 28.444444 0 0 1 0.796444 43.349333l-291.214222 257.479111a28.444444 28.444444 0 0 1-37.660445-42.666667L474.851556 522.808889z m284.444444 0L494.023111 306.460444a28.444444 28.444444 0 1 1 35.953778-44.032l291.271111 237.454223a28.444444 28.444444 0 0 1 0.796444 43.349333l-291.214222 257.479111a28.444444 28.444444 0 0 1-37.660444-42.666667l266.126222-235.235555z"  /></svg>