<?xml version="1.0" standalone="no"?><!DOCTYPE svg PUBLIC "-//W3C//DTD SVG 1.1//EN" "http://www.w3.org/Graphics/SVG/1.1/DTD/svg11.dtd"><svg class="icon" width="16px" height="16.00px" viewBox="0 0 1024 1024" version="1.1" xmlns="http://www.w3.org/2000/svg"><path fill="#333333" d="M370.842 723.473a23.348 23.348 0 0 1-16.562-6.863L152.638 514.979c-9.15-9.15-9.15-23.974 0-33.125 9.15-9.15 23.974-9.15 33.125 0l201.642 201.631c9.15 9.15 9.15 23.974 0 33.125a23.352 23.352 0 0 1-16.563 6.863z"  /><path fill="#333333" d="M370.842 723.473a23.348 23.348 0 0 1-16.562-6.863c-9.15-9.151-9.15-23.974 0-33.125l436.409-436.409c9.151-9.15 23.974-9.15 33.125 0 9.15 9.15 9.15 23.974 0 33.125L387.404 716.61a23.348 23.348 0 0 1-16.562 6.863z"  /></svg>