<?xml version="1.0" standalone="no"?><!DOCTYPE svg PUBLIC "-//W3C//DTD SVG 1.1//EN" "http://www.w3.org/Graphics/SVG/1.1/DTD/svg11.dtd"><svg class="icon" width="16px" height="16.00px" viewBox="0 0 1024 1024" version="1.1" xmlns="http://www.w3.org/2000/svg"><path fill="#333333" d="M512 64C265.6 64 64 265.6 64 512s201.6 448 448 448 448-201.6 448-448S758.4 64 512 64z m32 672c0 17.7-14.3 32-32 32s-32-14.3-32-32v-32c0-17.7 14.3-32 32-32s32 14.3 32 32v32z m0-128c0 17.7-14.3 32-32 32s-32-14.3-32-32V288c0-17.7 14.3-32 32-32s32 14.3 32 32v320z" /></svg>