<?xml version="1.0" standalone="no"?><!DOCTYPE svg PUBLIC "-//W3C//DTD SVG 1.1//EN" "http://www.w3.org/Graphics/SVG/1.1/DTD/svg11.dtd"><svg class="icon" width="16px" height="16.00px" viewBox="0 0 1024 1024" version="1.1" xmlns="http://www.w3.org/2000/svg"><path fill="#333333" d="M527.473778 494.364444l265.272889-216.348444a28.444444 28.444444 0 1 0-35.953778-44.032L465.578667 471.438222a28.444444 28.444444 0 0 0-0.853334 43.349334l291.214223 257.479111a28.444444 28.444444 0 1 0 37.660444-42.666667L527.473778 494.364444z m-284.444445 0l265.272889-216.348444a28.444444 28.444444 0 1 0-35.953778-44.032L181.134222 471.438222a28.444444 28.444444 0 0 0-0.853333 43.349334l291.214222 257.479111a28.444444 28.444444 0 1 0 37.660445-42.666667L243.029333 494.364444z"  /></svg>