<?xml version="1.0" standalone="no"?><!DOCTYPE svg PUBLIC "-//W3C//DTD SVG 1.1//EN" "http://www.w3.org/Graphics/SVG/1.1/DTD/svg11.dtd"><svg class="icon" width="16px" height="16.00px" viewBox="0 0 1024 1024" version="1.1" xmlns="http://www.w3.org/2000/svg"><path fill="#333333" d="M512 65.984C266.048 65.984 65.984 266.048 65.984 512S266.048 958.016 512 958.016 958.016 757.952 958.016 512 757.952 65.984 512 65.984zM544 736c0 17.696-14.304 32-32 32s-32-14.304-32-32l0-288c0-17.696 14.304-32 32-32s32 14.304 32 32L544 736zM512 352c-26.496 0-48-21.536-48-48C464 277.472 485.504 256 512 256s48 21.472 48 48C560 330.464 538.496 352 512 352z" /></svg>