<?xml version="1.0" standalone="no"?><!DOCTYPE svg PUBLIC "-//W3C//DTD SVG 1.1//EN" "http://www.w3.org/Graphics/SVG/1.1/DTD/svg11.dtd"><svg class="icon" width="16px" height="16.00px" viewBox="0 0 1024 1024" version="1.1" xmlns="http://www.w3.org/2000/svg"><path fill="#333333" d="M666.272 472.288l-175.616 192a31.904 31.904 0 0 1-23.616 10.4h-0.192a32 32 0 0 1-23.68-10.688l-85.728-96a32 32 0 1 1 47.744-42.624l62.144 69.6 151.712-165.888a32 32 0 1 1 47.232 43.2m-154.24-344.32C300.224 128 128 300.32 128 512c0 211.776 172.224 384 384 384 211.68 0 384-172.224 384-384 0-211.68-172.32-384-384-384" /></svg>